<mxfile host="app.diagrams.net" modified="2024-03-06T15:26:11.586Z" agent="Mozilla/5.0 (Macintosh; Intel Mac OS X 10_15_7) AppleWebKit/605.1.15 (KHTML, like Gecko) Version/17.4 Safari/605.1.15" version="24.0.2" etag="0uBsMWevMMRDRiBVncv3" type="github">
  <diagram name="Page-1" id="axqtglic8ycgbicDqgk4">
    <mxGraphModel>
      <root>
        <mxCell id="0" />
        <mxCell id="1" parent="0" />
      </root>
    </mxGraphModel>
  </diagram>
</mxfile>
